PathFileType	4	(X/Y/Z)	C:/Users/beibeiliu/ov580/test_trc/User1\sequence.12_training_dense_left.trc
DataRate	CameraRate	NumFrames	NumMarkers	Units	OrigDataRate	OrigDataStartFrame	OrigNumFrames
120	120	20	19	mm	120	77	304
Frame#	Time	ThumbCMC			ThumbMCP			ThumbIP			ThumbTip			IndexMCP			IndexPIP			IndexTip			MiddleMCP			MiddlePIP			MiddleTip			RingMCP			RingPIP			RingTip			PinkyMCP			PinkyPIP			PinkyTip			BackHand1			BackHand2			BackHand3	
		X0	Y0	Z0	X1	Y1	Z1	X2	Y2	Z2	X3	Y3	Z3	X4	Y4	Z4	X5	Y5	Z5	X6	Y6	Z6	X7	Y7	Z7	X8	Y8	Z8	X9	Y9	Z9	X10	Y10	Z10	X11	Y11	Z11	X12	Y12	Z12	X13	Y13	Z13	X14	Y14	Z14	X15	Y15	Z15	X16	Y16	Z16	X17	Y17	Z17	X18	Y18	Z18	
76	0.633333	-157.885	48.1563	31.2047	-140.671	38.0771	7.60016	-125.585	42.1826	-15.5963	-110.051	36.9256	-36.5297	-142.311	112.966	-12.4104	-131.519	133.143	-36.8335	-129.779	135.729	-67.0305	-165.074	133.603	-23.6983	-159.364	148.462	-51.6203	-152.188	144.437	-84.5138	-190.435	128.246	-28.2197	-187.68	142.611	-60.9652	-185.195	134.318	-87.2949	-223.862	114.194	-30.8275	-223.734	121.88	-54.5757	-210.299	116.647	-85.7379	-208.104	97.7247	16.788	-221.33	86.5621	41.565	-181.209	86.8769	34.8889	
77	0.641667	-162.994	45.6772	31.8805	-143.245	37.5406	5.74403	-124.245	36.2688	-15.1165	-112.28	33.2827	-35.5622	-144.739	111.582	-14.4333	-132.517	130.656	-38.4185	-129.034	133.641	-70.1356	-163.462	129.497	-22.4779	-156.307	144.443	-49.3149	-155.146	141.09	-85.4066	-191.106	127.521	-29.8224	-187.093	140.42	-61.2407	-183.731	132.496	-90.0944	-220.81	114.335	-30.8864	-221.099	121.312	-56.2418	-210.124	115.818	-80.2222	-207.808	100.319	16.6892	-220.595	82.8645	42.5262	-181.342	84.6756	34.7191	
78	0.65	-159.7	41.103	32.142	-142.086	35.499	3.78533	-126.47	34.3089	-16.2789	-115.405	32.7223	-38.5365	-142.798	109.918	-17.4063	-131.872	126.956	-37.7186	-129.307	130.514	-68.2306	-167.805	126.625	-22.802	-155.732	143.48	-54.9408	-152.292	138.715	-86.8211	-190.948	124.545	-27.0256	-187.532	140.319	-59.6179	-184.362	132.866	-85.9072	-220.793	110.177	-27.4442	-220.95	120.878	-56.8222	-212.15	116.253	-82.032	-205.538	94.3852	17.1405	-217.628	81.6536	41.4905	-178.186	78.8726	34.3405	
79	0.658333	-161.041	40.6482	29.0869	-142.691	31.4145	3.90767	-124.182	30.0348	-17.3614	-113.921	27.9036	-39.6374	-144.843	106.768	-17.888	-133.73	126.66	-43.8367	-129.147	129.356	-69.3147	-166.182	125.997	-25.1977	-155.439	140.385	-51.645	-156.241	137.588	-87.1346	-188.334	126.802	-30.3547	-187.288	138.356	-59.349	-183.425	131.084	-86.7618	-221.021	111.518	-28.1373	-223.857	121.331	-52.5089	-214.534	115.83	-80.0848	-207.07	94.1018	16.7085	-214.685	82.4263	42.9693	-177.554	79.3014	34.3524	
80	0.666667	-162.945	39.9133	28.1407	-143.48	26.9699	5.74221	-128.057	30.8216	-18.452	-117.729	25.7419	-39.2495	-142.291	108.152	-19.7095	-133.53	125.379	-44.5739	-127.242	126.457	-73.1711	-165.161	124.698	-25.7862	-156.493	140.977	-54.9449	-154.467	135.974	-87.4481	-188.096	122.697	-28.7632	-183.4	136.244	-56.7785	-182.015	128.044	-89.4964	-224.385	113.272	-29.7185	-220.52	119.741	-51.7192	-216.109	115.888	-80.7385	-205.583	99.197	14.2696	-213.49	79.3356	43.0628	-177.615	76.7575	34.3653	
81	0.675	-160.616	36.4387	29.2552	-144.224	27.1912	3.05188	-127.743	27.9428	-18.6863	-118.592	22.8986	-40.0786	-143.168	103.837	-20.1056	-135.717	122.907	-42.8684	-132.452	125.594	-75.5367	-161.996	122.816	-26.7444	-153.129	138.638	-54.7261	-158.53	136.693	-90.0228	-190.896	122.761	-29.4594	-187.29	137.315	-57.6144	-183.661	128.031	-91.1058	-220.073	112.821	-31.2062	-221.205	120.196	-53.8657	-219.108	114.402	-83.5309	-207.319	96.6648	15.4034	-218	81.5689	41.4121	-178.51	76.456	32.2554	
82	0.683333	-162.111	37.4081	27.401	-149.131	26.4268	3.59274	-130.723	26.9347	-22.1506	-121.304	24.5296	-43.3346	-143.149	103.371	-21.6647	-134.687	120.703	-44.7739	-135.874	124.357	-76.2897	-166.384	120.509	-26.5177	-157.415	138.261	-59.5181	-161.61	134.699	-93.5202	-191.758	123.231	-31.1045	-190.373	136.277	-60.1221	-186.308	126.865	-90.2859	-223.493	109.203	-27.9182	-226.193	119.559	-54.3377	-221.848	112.531	-81.7376	-203.426	96.7614	13.2216	-214.657	81.0859	42.753	-180.277	76.747	33.4285	
83	0.691667	-166.386	36.549	26.5402	-147.945	24.4396	0.400312	-134.604	26.3103	-23.4906	-122.95	21.1739	-46.4966	-145.62	101.003	-24.8254	-138.034	120.298	-49.6836	-137.012	122.636	-79.8368	-169.107	124.471	-31.3687	-163.942	138.217	-61.053	-166.818	134.013	-93.8796	-193.975	122.053	-32.2409	-192.667	135.571	-62.3549	-195.182	126.028	-93.8002	-227.773	110.114	-29.9253	-231.481	118.286	-55.2692	-222.185	109.764	-84.5216	-207.835	97.2652	11.3405	-218.445	82.257	40.9259	-179.001	77.2585	29.54	
84	0.7	-163.9	38.6088	21.5626	-148.949	25.457	-4.00087	-132.829	22.6099	-25.9541	-126.384	18.1029	-48.6457	-148.856	100.537	-28.572	-142.411	119.93	-57.8776	-140.443	120.46	-84.2493	-168.584	122.138	-35.9939	-167.256	137.821	-62.8293	-169.28	132.712	-99.2688	-197.434	123.577	-36.0294	-194.05	133.752	-69.2901	-198.179	122.852	-97.541	-226.967	112.363	-33.5375	-234.45	117.643	-57.7091	-226.415	109.901	-85.4328	-208.709	100.171	10.6621	-217.125	81.3854	41.3875	-178.419	77.2252	26.872	
85	0.708333	-166.791	36.6833	20.0142	-154.259	26.7641	-7.65419	-141.564	23.7286	-30.1806	-130.747	17.4191	-53.0695	-153.727	101.675	-35.1939	-148.407	116.946	-58.4303	-149.027	118.506	-90.4776	-173.182	120.2	-37.5769	-169.651	135.42	-70.2989	-175.925	130.793	-101.678	-202.52	124.111	-38.3446	-197.699	132.869	-70.1502	-207.627	121.993	-99.8135	-235.027	114.132	-34.8533	-237.459	117.196	-58.06	-236.265	107.113	-89.8357	-211.984	97.8005	10.2036	-215.141	84.084	37.7856	-180.706	75.0831	25.9367	
86	0.716667	-170.622	37.914	17.7049	-156.486	25.1933	-10.3335	-143.427	19.9807	-31.5217	-134.752	16.4738	-59.3482	-159.559	99.958	-38.7206	-149.509	115.961	-65.6875	-154.571	115.959	-98.146	-181.659	120.148	-40.0841	-176.633	133.948	-70.5461	-186.561	128.738	-109.067	-204.565	121.766	-41.0632	-206.597	132.32	-74.9008	-213.643	122.593	-98.713	-235.603	111.945	-34.2733	-240.27	115.249	-61.5569	-244.168	106.356	-87.1084	-214.531	96.2475	9.40684	-214.732	85.5014	36.8801	-180.596	76.7454	22.5853	
87	0.725	-171.369	36.7525	14.8596	-158.328	23.3742	-12.9389	-150.043	22.784	-37.1093	-139.589	13.0503	-59.8687	-161.859	100.993	-43.4862	-157.22	115.133	-69.3451	-161.556	113.582	-101.675	-181.252	120.538	-44.6286	-179.439	133.45	-74.9934	-190.759	127.249	-107.012	-211.128	123.138	-41.2861	-210.305	132.07	-73.3123	-219.938	120.359	-101.565	-240.125	111.502	-33.3777	-250.38	116.033	-60.5819	-251.854	104.906	-85.346	-215.255	98.8685	8.79417	-218.462	84.0736	39.8318	-183.278	77.4062	20.2593	
88	0.733333	-172.072	38.2653	10.894	-162.788	24.6019	-14.4902	-148.967	20.0687	-41.6702	-147.291	14.9614	-66.1014	-167.459	98.4536	-45.4204	-160.362	113.398	-76.8962	-169.867	112.429	-103.653	-188.852	123.016	-47.9851	-189.179	133.956	-79.741	-197.845	126.382	-109.221	-216.783	121.705	-41.3857	-216.965	131.322	-72.9946	-228.601	120.631	-99.8591	-244.014	112.187	-32.7428	-253.639	116.208	-56.5069	-260.534	106.221	-82.572	-214.746	97.5072	8.90127	-218.656	86.5607	38.0306	-183.574	78.2675	13.88	
89	0.741667	-174.673	39.2218	8.82964	-165.252	25.1801	-16.5875	-156.29	20.9096	-43.3051	-152.175	11.4174	-64.0068	-170.63	98.3889	-49.6677	-166.427	111.629	-80.3066	-172.453	107.762	-110.417	-192.039	122.458	-50.1614	-191.862	132.199	-82.3662	-207.09	125.252	-112.272	-216.969	122.274	-44.1858	-223.556	132.782	-74.822	-232.791	119.302	-100.72	-250.026	111.654	-29.2319	-259.404	116.082	-56.4062	-262.185	103.767	-84.1179	-219.241	99.2403	7.37671	-220.075	87.8734	38.308	-184.502	79.3328	13.1638	
90	0.75	-173.644	37.3623	9.94966	-168.711	24.8528	-17.9585	-156.825	16.7437	-45.695	-158.099	11.5259	-69.3359	-174.919	98.1745	-50.308	-170.725	110.843	-78.9904	-180.644	105.435	-112.168	-195.501	118.149	-48.9608	-197.524	131.855	-80.1759	-213.971	122.85	-114.267	-219.492	120.474	-42.7181	-227.252	132.14	-75.7385	-242.957	118.137	-103.336	-254.509	114.088	-31.6223	-260.72	117.339	-54.2868	-266.116	106.614	-80.2367	-216.456	96.8603	5.60815	-220.894	88.6336	35.2785	-183.904	78.7716	13.4819	
91	0.758333	-173.793	38.0772	8.3804	-167.222	21.6173	-17.7146	-160.698	14.3421	-43.1587	-162.787	8.02545	-66.8074	-173.434	97.7464	-56.6468	-174.91	108.752	-82.9326	-184.269	103.158	-112.507	-195.683	116.706	-50.3504	-200.764	130.207	-86.4594	-218.488	121.668	-114.918	-222.394	124.268	-47.2817	-232.9	131.61	-74.3828	-247.285	118.525	-99.2885	-252.359	111.392	-27.875	-267.119	116.993	-52.7891	-274.553	106.464	-80.6668	-216.766	99.2646	4.8854	-217.244	89.9929	34.8822	-187.392	79.4829	10.0905	
92	0.766667	-174.635	37.7015	8.39847	-171.418	22.7209	-17.0264	-162.138	15.2525	-46.0218	-166.319	8.94087	-69.0464	-178.269	95.6128	-54.8095	-176.843	107.908	-85.9818	-188.664	103.167	-111.27	-200.665	119.235	-51.0534	-206.005	129.749	-84.1314	-220.789	119.013	-116.508	-226.165	122.9	-45.2506	-235.792	129.75	-76.6721	-246.688	117.656	-99.2193	-255.421	112.968	-27.623	-267.351	116.981	-51.4521	-274.182	104.799	-79.9747	-220.092	99.8097	6.12899	-215.55	86.9264	38.4128	-190.162	79.0794	13.6927	
93	0.775	-174.927	38.3382	8.45432	-168.965	22.6105	-20.6126	-164.716	14.8975	-43.1865	-162.429	3.82348	-67.4953	-174.758	93.3069	-54.321	-175.369	105.81	-84.4116	-187.72	100.048	-115.269	-197.722	119.112	-55.4315	-204.017	128.714	-83.9219	-223.796	119.365	-113.425	-226.532	123.117	-47.3533	-234.768	128.295	-74.4648	-247.133	113.828	-101.447	-251.678	112.59	-29.0516	-265.858	116.166	-52.2688	-274.485	103.229	-78.8266	-214.131	99.1264	5.4473	-212.983	86.3389	35.5425	-185.69	79.271	12.761	
94	0.783333	-175.088	40.1825	9.99019	-165.316	19.5987	-17.9417	-159.925	13.7422	-46.3308	-162.912	6.08111	-66.7643	-172.483	94.495	-57.9991	-177.078	106.708	-85.066	-187.637	99.6335	-112.234	-194.812	118.555	-55.4165	-201.665	127.71	-86.7941	-223.641	118.598	-115.137	-223.306	121.896	-46.423	-230.963	127.668	-74.9078	-249.335	114.448	-101.037	-250.513	112.343	-29.2652	-267.423	116.965	-47.3969	-274.493	106.417	-78.2768	-213.567	96.6394	5.75794	-212.334	88.6939	37.2409	-186.388	79.864	12.735	
95	0.791667	-172.516	40.1111	9.87641	-164.177	19.8755	-15.0441	-159.29	16.6444	-44.468	-158.626	3.27863	-65.8775	-171.267	96.6765	-57.8821	-176.12	106.657	-87.0195	-190.177	97.586	-115.255	-196.698	120.057	-53.212	-200.053	128.293	-82.0756	-221.683	118.135	-113.087	-223.289	122.1	-45.5199	-231.18	127.93	-72.5564	-245.481	115.009	-96.943	-251.215	111.044	-24.7826	-266.523	114.737	-52.9633	-269.322	104.812	-78.8216	-213.378	101.237	5.04083	-211.424	86.2997	36.9091	-179.472	78.6719	11.8861	
